# xmcd
# Track frame offsets:
# 183
# 19008
# 38223
# 71633
# 92838
# 113565
# 135398
# 155353
#
# Disc length: 2371 seconds
# Revision: 0
# Processed by: cddbd v1.4PL0 Copyright (c) Steve Scherf et al.
# Submitted via: VisiTrax 2.9.5.180 - For more info visit www.synapsa.com
#
DISCID=5d094108
DTITLE=Albert King - Truckload of Lovin'
DYEAR=1988
DGENRE=
TTITLE0=Cold Women With Warm Hearts
TTITLE1=Gonna Make It Somehow
TTITLE2=Sensation, Communication Together
TTITLE3=I'm Your Mate
TTITLE4=Truckload of Lovin'
TTITLE5=Hold Hands With One Another
TTITLE6=Cadillac Assembly Line
TTITLE7=Nobody Wants A Loser
EXTD=
EXTT0=
EXTT1=
EXTT2=
EXTT3=
EXTT4=
EXTT5=
EXTT6=
EXTT7=
PLAYORDER=
